<svg id="Layer_1" data-name="Layer 1" xmlns="http://www.w3.org/2000/svg" viewBox="0 0 612.2 597.56"><defs><style>.cls-1{fill:#744e2c;}.cls-2{fill:#fcc24e;}</style></defs><path class="cls-1" d="M87.2,445.77l24.52-72.89h4l26.87,76.89a9.65,9.65,0,0,0,2.11,3.74,4.43,4.43,0,0,0,2.42,1.25c.84.12,2.33.21,4.47.29v5.33h-31.1v-5.33c1.45,0,3-.11,4.65-.2a21.61,21.61,0,0,0,3.87-.5,2.16,2.16,0,0,0,1.41-.87,2.6,2.6,0,0,0,.7-1.74,8.61,8.61,0,0,0-.42-2.08l-6-17.23H97.35q-2.11,6.27-3,9.63a23.68,23.68,0,0,0-1.21,6.26q0,4.23,2.84,5.42a20.94,20.94,0,0,0,7.49,1.31v5.33H76.7v-5.33Q84.19,454.87,87.2,445.77ZM99.28,426.4h23.49l-12-34.85Z"/><path class="cls-1" d="M153.8,380v-5.28h33.45a56.14,56.14,0,0,1,14.52,1.68,25.36,25.36,0,0,1,11.08,6.32q4.83,4.65,8.15,13.11a62.38,62.38,0,0,1,3.87,22.79A55.87,55.87,0,0,1,220,441.68q-4.83,10.81-13.83,15.11a38.79,38.79,0,0,1-6.22,2.32,30.18,30.18,0,0,1-5.92,1.07c-1.85.14-4.38.2-7.6.2H153.62v-5.33h3.2c1.29-.07,2.31-.12,3.08-.14l2.54-.09a4.53,4.53,0,0,0,1.5-.87A10.88,10.88,0,0,0,165,448.5c0-.77,0-1.38,0-1.82s0-.94,0-1.48V391.14q0-1,0-1.83c0-.56,0-1.28,0-2.17a11.71,11.71,0,0,0-1.09-5.62,3.43,3.43,0,0,0-1.32-.87,13.32,13.32,0,0,0-1.81-.23ZM176,387.54v62.64a7.69,7.69,0,0,0,.39,2.93,3.24,3.24,0,0,0,1.85,1.42c.68.38,2.27.58,4.77.58.68,0,1.28,0,1.81,0s1.08,0,1.69,0a44.81,44.81,0,0,0,9.54-.7,13.55,13.55,0,0,0,6.37-3,22.33,22.33,0,0,0,4.68-6.4,33.81,33.81,0,0,0,3.77-12.11,128.28,128.28,0,0,0,.88-16,91.59,91.59,0,0,0-.73-12.06,46.3,46.3,0,0,0-3.44-13.53,17.51,17.51,0,0,0-8-8.2q-5.37-3-14.31-3c-4.27,0-6.8.23-7.61.69a2.16,2.16,0,0,0-1.12,1.11,11.93,11.93,0,0,0-.51,1.85C176,384.24,176,385.53,176,387.54Z"/><path class="cls-1" d="M239.24,445.77l24.51-72.89h4l26.87,76.89a9.52,9.52,0,0,0,2.11,3.74,4.41,4.41,0,0,0,2.41,1.25c.85.12,2.34.21,4.47.29v5.33H272.51v-5.33c1.45,0,3-.11,4.65-.2a21.48,21.48,0,0,0,3.86-.5,2.17,2.17,0,0,0,1.42-.87,2.64,2.64,0,0,0,.69-1.74,8.61,8.61,0,0,0-.42-2.08l-6-17.23H249.38q-2.12,6.27-3,9.63a24.1,24.1,0,0,0-1.21,6.26q0,4.23,2.84,5.42a20.94,20.94,0,0,0,7.49,1.31v5.33H228.73v-5.33Q236.22,454.87,239.24,445.77Zm12.07-19.37H274.8l-11.95-34.85Z"/><path class="cls-1" d="M333.43,460.38H304.87v-5.33q8.2-.58,9.84-4.81a24.37,24.37,0,0,0,1.54-6.17,62.41,62.41,0,0,0,.39-7.33V385.69a15.2,15.2,0,0,0-.6-3.39,4.27,4.27,0,0,0-1.75-1.88,12.11,12.11,0,0,0-3.62-.41h-5.62v-5.28h26.14l19.75,64.15,18.78-64.15h25.54V380l-5,.2a22.34,22.34,0,0,0-3.9.49,2.86,2.86,0,0,0-1.81,2,42.52,42.52,0,0,0-.54,8V450a7,7,0,0,0,.51,3.13,3.1,3.1,0,0,0,2.26,1.27,35.73,35.73,0,0,0,8.28.7v5.33H361.69v-5.33a39.45,39.45,0,0,0,4.95-.23,15.32,15.32,0,0,0,4.1-.64,2.84,2.84,0,0,0,1.69-1.83,14.16,14.16,0,0,0,.49-4.43V381h-.06l-23,79.38h-3.8l-24.4-79.56h-.12V438.3a56.15,56.15,0,0,0,.4,7.48,12.86,12.86,0,0,0,1.57,4.89,7.71,7.71,0,0,0,3.5,3.1,17,17,0,0,0,6.43,1.28Z"/><path class="cls-1" d="M408.12,445.77l24.51-72.89h4l26.87,76.89a9.52,9.52,0,0,0,2.11,3.74,4.41,4.41,0,0,0,2.41,1.25c.85.12,2.34.21,4.47.29v5.33H441.39v-5.33c1.44,0,3-.11,4.64-.2a21.48,21.48,0,0,0,3.87-.5,2.17,2.17,0,0,0,1.42-.87,2.64,2.64,0,0,0,.69-1.74,8.61,8.61,0,0,0-.42-2.08l-6-17.23H418.26q-2.11,6.27-3,9.63a24.1,24.1,0,0,0-1.21,6.26q0,4.23,2.84,5.42a20.94,20.94,0,0,0,7.49,1.31v5.33H397.61v-5.33Q405.1,454.87,408.12,445.77Zm12.07-19.37h23.49l-11.95-34.85Z"/><path class="cls-1" d="M477.37,461.25l-.6-33.4,4.34-.35c0,.24.08.49.13.76a4.82,4.82,0,0,1,.06.69,47.55,47.55,0,0,0,4.55,14.18,26.75,26.75,0,0,0,8.55,10,20.8,20.8,0,0,0,12.13,3.63q7.68,0,12-4.18a15.5,15.5,0,0,0,5-11.3,23.14,23.14,0,0,0-.87-6.21,13.08,13.08,0,0,0-2.33-4.87q-2.41-3.14-7.73-4.81l-10.2-3-5.26-1.59c-1.61-.49-3-.95-4.16-1.4a25.06,25.06,0,0,1-3.78-1.85,32.75,32.75,0,0,1-4.25-3.05,17,17,0,0,1-5-7.27,27.89,27.89,0,0,1-1.6-9.66q0-11.65,6.07-18.18t16.09-6.52a24.33,24.33,0,0,1,10.05,2,26.88,26.88,0,0,1,8.6,6.32l4-7.48h3.68l1.21,31h-4.35a54.81,54.81,0,0,0-2.9-10,34.55,34.55,0,0,0-4.8-8.49,21.48,21.48,0,0,0-6.73-5.89,17.39,17.39,0,0,0-8.51-2.09q-6.76,0-10.69,3.83a13.25,13.25,0,0,0-3,4.58,15,15,0,0,0-1.15,5.74q0,5.92,3.27,9.25a20.27,20.27,0,0,0,8.69,5l16.48,5.1a26.86,26.86,0,0,1,7.46,3.31,19.22,19.22,0,0,1,5.34,5.74q4.23,6.25,4.23,15.94a29.51,29.51,0,0,1-2.11,11.08,22.7,22.7,0,0,1-6,8.7,19.49,19.49,0,0,1-7.64,4.23,30.93,30.93,0,0,1-9.09,1.39,33.55,33.55,0,0,1-6.25-.78,26,26,0,0,1-5.7-1.65,33.13,33.13,0,0,1-9-6.73l-4.47,8.29Z"/><polygon class="cls-2" points="410.28 162.71 378.96 162.71 378.96 182.63 399.83 182.57 420.77 202.62 358.14 262.75 358.14 112.55 353.86 108.45 306.13 62.57 306.13 342.51 358.14 292.56 358.14 292.5 451.69 202.68 451.69 202.65 451.81 202.53 410.28 162.71"/><polygon class="cls-2" points="264.47 162.71 238.69 162.71 210.03 162.71 201.81 162.68 160.38 202.5 160.58 202.68 243.56 282.35 243.58 252.71 191.52 202.68 212.25 182.75 222.84 182.63 238.69 182.63 264.47 182.63 264.47 302.49 295.69 332.48 295.69 72.55 264.47 102.9 264.47 162.71"/><path class="cls-1" d="M128.55,525H116.18v-2.08c.55,0,1.15,0,1.8-.08a9.13,9.13,0,0,0,1.51-.19,1.46,1.46,0,0,0,1-1.11,16.65,16.65,0,0,0,.1-2V495.93l0-.68a1.56,1.56,0,0,0-.26-.93,1.94,1.94,0,0,0-.8-.52c-1.67-.14-2.77-.21-3.31-.21v-2h14.35c2.91,0,5.06.53,6.47,1.59a7.8,7.8,0,0,1,2.27,2.77,7.89,7.89,0,0,1,.84,3.55,7.79,7.79,0,0,1-2,5.59,8,8,0,0,1-5.05,2.43v.07a10.65,10.65,0,0,1,6,2.37,7.16,7.16,0,0,1,2.49,5.86,10.73,10.73,0,0,1-.4,2.9,8.15,8.15,0,0,1-1.11,2.47,7.79,7.79,0,0,1-1.57,1.64,16.37,16.37,0,0,1-2.16,1.22,10.84,10.84,0,0,1-2.5.67,23.16,23.16,0,0,1-3.59.3C129.85,525,129.29,525,128.55,525Zm-3.64-28.37v10l.9,0,.76,0c3.22,0,5.34-.26,6.34-.77,1.8-.95,2.69-2.9,2.69-5.85a9.69,9.69,0,0,0-.57-3.32,4.5,4.5,0,0,0-1.76-2.32q-1.49-.85-5.24-.86a9.41,9.41,0,0,0-2.13.18,1.82,1.82,0,0,0-.56.45,3,3,0,0,0-.35.77A13,13,0,0,0,124.91,496.65Zm0,12.24V519.7a7.14,7.14,0,0,0,.24,2.23,1.26,1.26,0,0,0,.88.83,9.4,9.4,0,0,0,2.24.18,26.31,26.31,0,0,0,3.61-.23,6.11,6.11,0,0,0,2.75-1,4.42,4.42,0,0,0,1.64-2.35,9.77,9.77,0,0,0,.54-3.2,8.57,8.57,0,0,0-1.1-4.79,5,5,0,0,0-2.92-2.1,18.67,18.67,0,0,0-4.64-.48A31.6,31.6,0,0,0,124.91,508.89Z"/><path class="cls-1" d="M172.63,508.28a20.81,20.81,0,0,1-.84,5.73,21.45,21.45,0,0,1-2.55,5.64,14.19,14.19,0,0,1-4.31,4.38,10.62,10.62,0,0,1-5.88,1.67,11.19,11.19,0,0,1-7.11-2.44,16.12,16.12,0,0,1-4.84-6.46,21.38,21.38,0,0,1-1.73-8.52,22,22,0,0,1,1.56-7.79,17.48,17.48,0,0,1,4.64-6.89,10.67,10.67,0,0,1,7.38-2.77,11.21,11.21,0,0,1,7.11,2.44,16.23,16.23,0,0,1,4.84,6.45A21.4,21.4,0,0,1,172.63,508.28Zm-5.08,0a42.66,42.66,0,0,0-.54-6.81,13.6,13.6,0,0,0-2.44-6,6.5,6.5,0,0,0-5.62-2.61,6.57,6.57,0,0,0-4.22,1.35,8.77,8.77,0,0,0-2.62,3.6,19.89,19.89,0,0,0-1.3,4.94,41.23,41.23,0,0,0-.37,5.48,46.77,46.77,0,0,0,.26,4.91,21.88,21.88,0,0,0,1.1,4.83,9.36,9.36,0,0,0,2.64,4,6.67,6.67,0,0,0,4.61,1.6,6.42,6.42,0,0,0,5.23-2.28,12.91,12.91,0,0,0,2.58-5.66A37.16,37.16,0,0,0,167.55,508.28Z"/><path class="cls-1" d="M175.1,493.61v-2.06h13.22v2.06c-.6.08-1.28.14-2,.19s-1.29.09-1.57.13q-.9.12-.9.84v18.59a24.05,24.05,0,0,0,.35,4.46,6.37,6.37,0,0,0,1.66,3.17,7,7,0,0,0,2.66,1.79,9.7,9.7,0,0,0,3.33.52,7.41,7.41,0,0,0,3.83-1.08,7,7,0,0,0,2.78-3.06,10.38,10.38,0,0,0,.76-2.36,12.06,12.06,0,0,0,.35-2.6V499.41a12,12,0,0,0-.37-3.35,2.87,2.87,0,0,0-1.36-1.74,6.93,6.93,0,0,0-2.9-.71v-2.06h11.16v2.06a4.49,4.49,0,0,0-3.08.95,4,4,0,0,0-1.2,2.36,27.82,27.82,0,0,0-.23,4.08v10.14a36.36,36.36,0,0,1-.43,6.13,11.24,11.24,0,0,1-2,4.61q-2.76,3.82-8.52,3.82a16.72,16.72,0,0,1-3.63-.34,9,9,0,0,1-5-2.74,10.65,10.65,0,0,1-2-3,10.44,10.44,0,0,1-.53-3.6V495.9a5.64,5.64,0,0,0-.1-1.31,1,1,0,0,0-.49-.59,1.64,1.64,0,0,0-.65-.23c-.27,0-.59-.07-.94-.09s-.67,0-1-.07Z"/><path class="cls-1" d="M209,504.33h-1.54l.71-12.78h23.57l.64,12.94h-1.58a31.65,31.65,0,0,0-1.67-7,6.51,6.51,0,0,0-1.23-2.08,5.68,5.68,0,0,0-1.76-1.36,4.82,4.82,0,0,0-2.16-.48c-1,0-1.58.34-1.82,1a14.5,14.5,0,0,0-.09,2V520.7c0,1,.23,1.61.68,1.86a3.84,3.84,0,0,0,1.89.4h2.1V525h-13.8v-2.08l2.92-.16a2.64,2.64,0,0,0,1.42-.29,1.34,1.34,0,0,0,.4-.78,12,12,0,0,0,.07-1.62V495.9a8.34,8.34,0,0,0-.07-1.29c-.23-.66-.87-1-1.91-1-2.06,0-3.7,1.14-4.91,3.4a8.31,8.31,0,0,0-.53,1.15,13.45,13.45,0,0,0-.44,1.46c-.12.53-.23,1-.33,1.49s-.18,1-.28,1.5c0,.19-.07.45-.13.78S209,504.05,209,504.33Z"/><path class="cls-1" d="M247.66,525h-13v-2.08c.19,0,.53,0,1,0s1,0,1.41-.08a5.13,5.13,0,0,0,.92-.16,1.39,1.39,0,0,0,.87-.8,5.07,5.07,0,0,0,.17-1.51V496.11a2,2,0,0,0-2.58-2.47h-1a5,5,0,0,1-.8-.05v-2h13.07v2a23.39,23.39,0,0,0-3.21.16,1.84,1.84,0,0,0-1.11,1.06,14.34,14.34,0,0,0-.07,1.52v24.14a10.91,10.91,0,0,0,0,1.18,4.82,4.82,0,0,0,.4.68,3.1,3.1,0,0,0,2.05.61h1.82Z"/><path class="cls-1" d="M277.2,526.09h1.68v.38l-.05.64a12.75,12.75,0,0,1-.4,2.63,5,5,0,0,1-1,2.13,4.7,4.7,0,0,1-3.64,1.9,4.08,4.08,0,0,1-4-2.5,15.83,15.83,0,0,1-1.34-6.2,3.08,3.08,0,0,0-.59.18,11.46,11.46,0,0,1-3.33.45,10.57,10.57,0,0,1-5.31-1.42,14.3,14.3,0,0,1-4.34-3.89,19.22,19.22,0,0,1-2.87-5.55,19.86,19.86,0,0,1-1-6.34,22.35,22.35,0,0,1,1-6.57,19.09,19.09,0,0,1,2.81-5.66,15.35,15.35,0,0,1,2.81-3,11.09,11.09,0,0,1,3.2-1.79,10.75,10.75,0,0,1,3.69-.62,11.78,11.78,0,0,1,3.78.6,11.58,11.58,0,0,1,3.33,1.76,15.76,15.76,0,0,1,2.88,2.89,17.21,17.21,0,0,1,2.81,5.46,20.6,20.6,0,0,1,1,6.38,22.75,22.75,0,0,1-.74,5.79,20.63,20.63,0,0,1-2.17,5.24,15.92,15.92,0,0,1-3.39,4.13c.33,1.08.52,1.71.59,1.88.41,1.31.77,2.39,1.1,3.24a4.13,4.13,0,0,0,1.26,1.86,3.23,3.23,0,0,0,.74.11l.64-.32a3.17,3.17,0,0,0,.66-1.52A21.68,21.68,0,0,0,277.2,526.09ZM271,519.88a17.27,17.27,0,0,0,1.26-3.21,21.9,21.9,0,0,0,.69-3.5,29.23,29.23,0,0,0,.22-3.6c0-2.6-.07-4.51-.19-5.73a20.73,20.73,0,0,0-1.2-5.51,8.71,8.71,0,0,0-2.76-4,6.6,6.6,0,0,0-4.2-1.42,6.81,6.81,0,0,0-4.52,1.45,10,10,0,0,0-1.52,1.76,10.91,10.91,0,0,0-1.19,2.09,20.2,20.2,0,0,0-1.06,4.72,43,43,0,0,0-.38,5.32q0,8.46,2.48,12.06c-.06-.57-.09-1-.09-1.18a7.15,7.15,0,0,1,.73-3.27,5.5,5.5,0,0,1,2-2.28,5.4,5.4,0,0,1,2.92-.82,5.67,5.67,0,0,1,3.17.94,7.36,7.36,0,0,1,2.31,2.54A12.26,12.26,0,0,1,271,519.88Zm-2.71,2.79a14.55,14.55,0,0,0-.91-5.59,3.44,3.44,0,0,0-3.52-2.19,3,3,0,0,0-1.89.65,4.05,4.05,0,0,0-1.25,1.69,6,6,0,0,0-.44,2.32,3.71,3.71,0,0,0,1.25,3.09,4.94,4.94,0,0,0,3.13,1,8.74,8.74,0,0,0,3.28-.72A2.85,2.85,0,0,1,268.27,522.67Z"/><path class="cls-1" d="M280.74,493.61v-2.06H294v2.06c-.6.08-1.28.14-2,.19s-1.29.09-1.57.13q-.9.12-.9.84v18.59a24.05,24.05,0,0,0,.35,4.46,6.37,6.37,0,0,0,1.66,3.17,7,7,0,0,0,2.66,1.79,9.7,9.7,0,0,0,3.33.52,7.38,7.38,0,0,0,3.83-1.08,7,7,0,0,0,2.78-3.06,10.38,10.38,0,0,0,.76-2.36,12.06,12.06,0,0,0,.35-2.6V499.41a12,12,0,0,0-.37-3.35,2.87,2.87,0,0,0-1.36-1.74,6.88,6.88,0,0,0-2.9-.71v-2.06H311.7v2.06a4.51,4.51,0,0,0-3.08.95,4,4,0,0,0-1.2,2.36,28.1,28.1,0,0,0-.22,4.08v10.14a36.24,36.24,0,0,1-.44,6.13,11.24,11.24,0,0,1-1.95,4.61q-2.76,3.82-8.52,3.82a16.72,16.72,0,0,1-3.63-.34,9,9,0,0,1-5-2.74,10.65,10.65,0,0,1-2-3,10.44,10.44,0,0,1-.53-3.6V495.9a5.64,5.64,0,0,0-.1-1.31,1,1,0,0,0-.49-.59,1.59,1.59,0,0,0-.65-.23c-.27,0-.59-.07-.94-.09s-.67,0-1-.07Z"/><path class="cls-1" d="M313.57,493.61v-2.06h23.85l.55,11.88h-1.66a23,23,0,0,0-1.7-6.54,4.94,4.94,0,0,0-2.91-2.64,19.58,19.58,0,0,0-5.77-.64h-.8a6.28,6.28,0,0,0-2.33.29c-.4.19-.6.7-.6,1.55v11.17h1.41a5.67,5.67,0,0,0,2.85-.64,4.13,4.13,0,0,0,1.73-2.05,10.51,10.51,0,0,0,.69-3.67h1.79v15.25h-1.79a9.29,9.29,0,0,0-1.13-5,3.74,3.74,0,0,0-3.38-1.77H322.2v12.42a2.22,2.22,0,0,0,.4,1.16,1.88,1.88,0,0,0,.57.28,2.65,2.65,0,0,0,.55.1,6.47,6.47,0,0,0,.69,0,11.94,11.94,0,0,0,2.53.2,17.57,17.57,0,0,0,3.26-.23,5.9,5.9,0,0,0,3.28-1.3,7.13,7.13,0,0,0,1.93-2.73,23.39,23.39,0,0,0,1.21-4.19c.05-.22.09-.45.13-.69s.11-.64.22-1.17h1.63L337.85,525H313.5v-2.08h1.18l.93-.06a4.88,4.88,0,0,0,1-.16,1.67,1.67,0,0,0,.81-.43,1.45,1.45,0,0,0,.41-.85,18.7,18.7,0,0,0,.07-2V497c0-.89,0-1.55-.05-2a1.43,1.43,0,0,0-.37-.92,1.59,1.59,0,0,0-.92-.35A21.22,21.22,0,0,0,313.57,493.61Z"/><path class="cls-1" d="M366.19,525H353.11v-2.08a19.7,19.7,0,0,0,3.09-.41c.87-.19,1.3-.56,1.3-1.11V495.09a1.1,1.1,0,0,0-.75-1.1,5,5,0,0,0-1.76-.34l-1.88-.06v-2h13.15v2a24.33,24.33,0,0,0-3.45.21,1,1,0,0,0-.68.51,1.5,1.5,0,0,0-.31.89v11.29h13.24V494.86a1,1,0,0,0-.23-.65,1,1,0,0,0-.53-.35,8.55,8.55,0,0,0-2-.2c-1,0-1.56-.05-1.64-.07v-2h13.12v2l-2,.06a8.1,8.1,0,0,0-1.53.15,1.12,1.12,0,0,0-.68.34,1.09,1.09,0,0,0-.19.72v26.56c0,.62.37,1,1.13,1.25a5.42,5.42,0,0,0,.88.14,9.79,9.79,0,0,0,1.08.07l1.25.06V525h-13.1v-2.08c.25,0,.82-.05,1.7-.05a4.82,4.82,0,0,0,1.94-.32,1.33,1.33,0,0,0,.75-1.31l.05-12.3H361.82v12.6a1.13,1.13,0,0,0,.31.76,1.24,1.24,0,0,0,.73.42,18.62,18.62,0,0,0,3.33.2Z"/><path class="cls-1" d="M414,508.28a20.81,20.81,0,0,1-.84,5.73,21.45,21.45,0,0,1-2.55,5.64,14.19,14.19,0,0,1-4.31,4.38,10.58,10.58,0,0,1-5.88,1.67,11.21,11.21,0,0,1-7.11-2.44,16.12,16.12,0,0,1-4.84-6.46,21.38,21.38,0,0,1-1.73-8.52,22,22,0,0,1,1.56-7.79,17.48,17.48,0,0,1,4.64-6.89,10.67,10.67,0,0,1,7.38-2.77,11.21,11.21,0,0,1,7.11,2.44,16.14,16.14,0,0,1,4.84,6.45A21.4,21.4,0,0,1,414,508.28Zm-5.07,0a42.66,42.66,0,0,0-.55-6.81,13.6,13.6,0,0,0-2.44-6,7.31,7.31,0,0,0-9.83-1.26,8.7,8.7,0,0,0-2.63,3.6,20.34,20.34,0,0,0-1.3,4.94,41.23,41.23,0,0,0-.36,5.48,44.22,44.22,0,0,0,.26,4.91,21.31,21.31,0,0,0,1.09,4.83,9.36,9.36,0,0,0,2.64,4,6.67,6.67,0,0,0,4.61,1.6,6.42,6.42,0,0,0,5.23-2.28,12.69,12.69,0,0,0,2.58-5.66A37.13,37.13,0,0,0,408.9,508.28Z"/><path class="cls-1" d="M418.05,504.33h-1.53l.7-12.78H440.8l.63,12.94h-1.58a31.08,31.08,0,0,0-1.67-7,6.51,6.51,0,0,0-1.23-2.08,5.56,5.56,0,0,0-1.76-1.36,4.82,4.82,0,0,0-2.16-.48c-1,0-1.58.34-1.81,1a12.63,12.63,0,0,0-.1,2V520.7q0,1.49.69,1.86a3.78,3.78,0,0,0,1.88.4h2.1V525H422v-2.08l2.93-.16a2.6,2.6,0,0,0,1.41-.29,1.28,1.28,0,0,0,.4-.78,12,12,0,0,0,.07-1.62V495.9a8.34,8.34,0,0,0-.07-1.29c-.23-.66-.87-1-1.91-1-2.06,0-3.69,1.14-4.91,3.4a9.68,9.68,0,0,0-.53,1.15,11.58,11.58,0,0,0-.43,1.46c-.13.53-.24,1-.33,1.49s-.19,1-.29,1.5c0,.19-.07.45-.13.78S418.1,504.05,418.05,504.33Z"/><path class="cls-1" d="M443.42,493.61v-2.06h23.85l.55,11.88h-1.66a23,23,0,0,0-1.7-6.54,4.94,4.94,0,0,0-2.91-2.64,19.58,19.58,0,0,0-5.77-.64H455a6.28,6.28,0,0,0-2.33.29c-.4.19-.6.7-.6,1.55v11.17h1.41a5.67,5.67,0,0,0,2.85-.64,4.13,4.13,0,0,0,1.73-2.05,10.51,10.51,0,0,0,.69-3.67h1.79v15.25h-1.79a9.29,9.29,0,0,0-1.13-5,3.74,3.74,0,0,0-3.38-1.77h-2.17v12.42a2.22,2.22,0,0,0,.4,1.16,1.88,1.88,0,0,0,.57.28,2.65,2.65,0,0,0,.55.1,6.47,6.47,0,0,0,.69,0,11.87,11.87,0,0,0,2.53.2,17.57,17.57,0,0,0,3.26-.23,5.9,5.9,0,0,0,3.28-1.3,7.13,7.13,0,0,0,1.93-2.73,23.39,23.39,0,0,0,1.21-4.19c0-.22.09-.45.13-.69s.11-.64.22-1.17h1.63L467.7,525H443.35v-2.08h1.18l.93-.06a4.88,4.88,0,0,0,1-.16,1.67,1.67,0,0,0,.81-.43,1.45,1.45,0,0,0,.41-.85,18.7,18.7,0,0,0,.07-2V497c0-.89,0-1.55-.05-2a1.43,1.43,0,0,0-.37-.92,1.59,1.59,0,0,0-.92-.35A21.22,21.22,0,0,0,443.42,493.61Z"/><path class="cls-1" d="M472.18,493.59v-2h13.07v2c-1.11,0-1.95,0-2.5.09a2.31,2.31,0,0,0-1.51.41,1.44,1.44,0,0,0-.35.68,6.77,6.77,0,0,0-.12,1.5v23.54a8.87,8.87,0,0,0,.16,1.86,1.43,1.43,0,0,0,.76,1,18.9,18.9,0,0,0,3.44.23,20.79,20.79,0,0,0,3.3-.23,6.32,6.32,0,0,0,2.6-1.06,5.29,5.29,0,0,0,1.71-2.14,21.39,21.39,0,0,0,1.17-3.3,25.76,25.76,0,0,0,.8-3.9l1.66.09L495.54,525H472.18v-2.08c1.65-.08,2.59-.13,2.81-.16a1.39,1.39,0,0,0,1-.36,1.56,1.56,0,0,0,.39-.85,10.46,10.46,0,0,0,.07-1.42V495.47a1.91,1.91,0,0,0-.28-1.15,1.54,1.54,0,0,0-.52-.46A16.29,16.29,0,0,0,472.18,493.59Z"/></svg>